{
  "asset": {
    "version": "2.0",
    "generator": "FreeDome Player Demo",
    "copyright": "FreeDome Project 2025"
  },
  "scene": 0,
  "scenes": [
    {
      "name": "Triangle Scene",
      "nodes": [0]
    }
  ],
  "nodes": [
    {
      "name": "Triangle",
      "mesh": 0
    }
  ],
  "meshes": [
    {
      "name": "Triangle",
      "primitives": [
        {
          "attributes": {
            "POSITION": 0
          },
          "indices": 1,
          "material": 0
        }
      ]
    }
  ],
  "materials": [
    {
      "name": "Triangle Material",
      "pbrMetallicRoughness": {
        "baseColorFactor": [1.0, 0.5, 0.0, 1.0],
        "metallicFactor": 0.0,
        "roughnessFactor": 1.0
      }
    }
  ],
  "accessors": [
    {
      "bufferView": 0,
      "componentType": 5126,
      "count": 3,
      "type": "VEC3",
      "max": [1.0, 1.0, 0.0],
      "min": [-1.0, -1.0, 0.0]
    },
    {
      "bufferView": 1,
      "componentType": 5123,
      "count": 3,
      "type": "SCALAR"
    }
  ],
  "bufferViews": [
    {
      "buffer": 0,
      "byteOffset": 0,
      "byteLength": 36
    },
    {
      "buffer": 0,
      "byteOffset": 36,
      "byteLength": 6
    }
  ],
  "buffers": [
    {
      "byteLength": 42,
      "uri": "data:application/octet-stream;base64,"
    }
  ]
}
